<?xml version="1.0" standalone="no"?>
<!DOCTYPE svg PUBLIC "-//W3C//DTD SVG 20010904//EN"
 "http://www.w3.org/TR/2001/REC-SVG-20010904/DTD/svg10.dtd">
<svg version="1.0" xmlns="http://www.w3.org/2000/svg"
 width="300.000000pt" height="145.000000pt" viewBox="0 0 300.000000 145.000000"
 preserveAspectRatio="xMidYMid meet">
<metadata>
Created by potrace 1.10, written by Peter Selinger 2001-2011
</metadata>
<g transform="translate(0.000000,145.000000) scale(0.100000,-0.100000)"
fill="#000000" stroke="none">
<path d="M104 1414 c-50 -32 -85 -82 -94 -136 -7 -38 -7 -41 6 -23 8 10 14 24
14 29 0 6 24 34 54 61 63 59 73 66 106 82 25 11 24 12 -10 12 -23 1 -51 -9
-76 -25z"/>
<path d="M2823 1428 c15 -5 27 -14 27 -19 0 -5 6 -9 13 -9 6 0 41 -28 76 -62
50 -49 62 -57 56 -38 -22 76 -100 141 -166 139 l-34 -1 28 -10z"/>
<path d="M1870 1080 c-8 -5 -25 -10 -36 -10 -26 0 -88 -59 -109 -104 -19 -42
-25 -99 -25 -236 1 -191 6 -227 36 -275 26 -40 68 -74 104 -83 41 -11 553 -18
569 -8 4 3 24 6 44 8 21 1 37 6 37 10 0 4 6 8 14 8 22 0 86 77 86 105 0 14 5
25 10 25 6 0 10 69 10 186 0 224 -10 264 -76 323 -26 23 -60 42 -82 46 -60 12
-565 16 -582 5z m537 -31 c74 -13 119 -40 147 -89 19 -31 21 -55 24 -216 4
-206 -4 -252 -52 -300 -46 -46 -100 -54 -380 -54 -262 0 -322 9 -364 52 -45
49 -52 86 -52 280 0 157 3 189 19 224 22 49 73 90 127 103 56 13 455 13 531 0z"/>
<path d="M1915 720 l0 -180 50 0 50 0 0 180 0 180 -50 0 -50 0 0 -180z m66 23
c0 -57 0 -114 -1 -128 0 -14 -6 -25 -13 -25 -11 0 -14 29 -16 131 -2 116 0
130 14 127 14 -2 17 -19 16 -105z"/>
<path d="M2080 720 l0 -180 90 0 c129 0 181 25 222 104 29 57 21 134 -18 183
-49 60 -85 73 -196 73 l-98 0 0 -180z m120 138 c0 -6 -7 -20 -16 -30 -10 -10
-18 -38 -19 -63 -2 -45 -29 -90 -47 -79 -12 8 -8 156 4 172 13 15 78 16 78 0z
m71 -29 c11 -5 24 -22 30 -37 8 -21 6 -31 -11 -53 -24 -33 -25 -39 -6 -39 8 0
24 -8 36 -18 l21 -17 -26 -25 c-21 -20 -40 -26 -97 -30 -53 -4 -72 -2 -76 8
-8 23 17 63 48 74 34 11 35 15 15 42 -21 28 -18 53 10 81 28 28 29 29 56 14z
m95 -50 c11 -19 15 -73 5 -88 -17 -26 -42 12 -39 59 3 38 19 53 34 29z"/>
<path d="M528 931 c-97 -49 -147 -162 -117 -269 15 -58 50 -105 97 -134 53
-33 173 -30 230 5 72 46 96 96 94 196 -2 89 -9 105 -67 163 -55 56 -167 74
-237 39z m145 -22 c115 -31 168 -165 112 -283 -40 -83 -159 -120 -248 -77
-149 72 -137 301 19 356 48 17 68 18 117 4z"/>
<path d="M543 860 c-51 -30 -68 -65 -68 -136 0 -67 15 -99 68 -138 36 -26 111
-27 155 -1 48 29 76 94 69 157 -11 88 -64 138 -147 138 -27 0 -58 -8 -77 -20z
m126 -25 c31 -15 52 -37 55 -57 1 -7 7 -22 14 -34 7 -13 7 -25 2 -30 -5 -5
-11 -19 -13 -32 -4 -30 -41 -70 -72 -78 -93 -23 -179 72 -145 161 28 73 96
103 159 70z"/>
<path d="M882 918 c-5 -7 -15 -54 -21 -104 -14 -117 0 -272 26 -291 23 -17 30
-16 53 7 17 17 20 34 20 118 l1 97 32 -36 c42 -47 67 -78 67 -84 0 -3 8 -14
18 -24 93 -101 99 -104 139 -76 20 14 21 23 23 191 1 153 -1 179 -16 195 -23
25 -49 24 -68 -3 -11 -16 -16 -46 -16 -105 0 -46 -4 -83 -9 -83 -5 0 -35 33
-67 73 -32 39 -73 87 -91 105 -33 33 -72 42 -91 20z m168 -163 c68 -85 124
-155 124 -155 1 0 0 70 -2 155 -3 151 -3 155 17 155 21 0 21 -5 21 -189 0
-186 0 -189 -20 -184 -12 3 -74 73 -138 155 l-117 150 -3 -155 c-2 -149 -3
-155 -22 -150 -19 5 -20 15 -20 189 0 172 1 184 18 184 12 0 64 -56 142 -155z"/>
<path d="M1286 908 c-13 -18 -16 -54 -16 -180 0 -222 -2 -220 168 -222 107 -2
152 11 152 44 0 31 -41 50 -116 54 -38 2 -77 7 -86 11 -25 10 -18 45 12 52 14
3 28 11 32 17 5 8 8 7 8 -1 0 -9 15 -13 43 -12 35 1 38 2 17 9 -22 6 -21 8 15
11 34 3 40 8 43 30 4 38 -19 52 -93 51 -54 0 -68 3 -79 20 -11 15 -12 25 -4
38 9 14 26 18 89 18 107 0 145 25 103 66 -12 13 -40 16 -144 16 -122 0 -130
-1 -144 -22z m284 -19 c0 -20 -4 -21 -115 -17 l-115 3 0 -67 0 -68 105 0 c87
0 105 -3 105 -15 0 -12 -18 -15 -105 -15 l-105 0 0 -70 0 -70 115 0 c96 0 115
-3 115 -15 0 -13 -22 -15 -135 -15 l-135 0 0 185 0 185 135 0 c130 0 135 -1
135 -21z"/>
<path d="M10 175 c0 -69 103 -172 162 -163 22 3 22 4 -7 20 -42 23 -92 72
-126 126 -28 44 -29 45 -29 17z"/>
<path d="M2930 104 c-30 -30 -70 -64 -87 -76 -41 -25 -41 -28 0 -19 42 10 88
34 109 58 21 23 51 93 41 93 -5 0 -33 -25 -63 -56z"/>
</g>
</svg>
